<svg width="24" height="24" viewBox="0 0 24 24" fill="none" xmlns="http://www.w3.org/2000/svg">
<path d="M5.12602 6C5.57006 4.27477 7.13616 3 9 3C10.8638 3 12.4299 4.27477 12.874 6H21C21.5523 6 22 6.44772 22 7C22 7.55228 21.5523 8 21 8L12.874 8C12.4299 9.72523 10.8638 11 9 11C7.13616 11 5.57006 9.72523 5.12602 8H3C2.44772 8 2 7.55228 2 7C2 6.44772 2.44772 6 3 6H5.12602ZM7 7C7 8.10457 7.89543 9 9 9C10.1046 9 11 8.10457 11 7C11 5.89543 10.1046 5 9 5C7.89543 5 7 5.89543 7 7Z" fill="#005BFF"/>
<path d="M11 17C11 14.7909 12.7909 13 15 13C16.8638 13 18.4299 14.2748 18.874 16H21C21.5523 16 22 16.4477 22 17C22 17.5523 21.5523 18 21 18H18.874C18.4299 19.7252 16.8638 21 15 21C12.7909 21 11 19.2091 11 17ZM13 17C13 18.1046 13.8954 19 15 19C16.1046 19 17 18.1046 17 17C17 15.8954 16.1046 15 15 15C13.8954 15 13 15.8954 13 17Z" fill="#005BFF"/>
<path d="M2 17C2 16.4477 2.44772 16 3 16H8C8.55228 16 9 16.4477 9 17C9 17.5523 8.55228 18 8 18H3C2.44772 18 2 17.5523 2 17Z" fill="#005BFF"/>
</svg>
