<svg width="32" height="32" viewBox="0 0 32 32" fill="none" xmlns="http://www.w3.org/2000/svg">
<path d="M16.0108 1C7.72377 0.994594 1.00541 7.70754 1 15.9892C0.994594 24.2762 7.70754 30.9946 15.9892 31C24.2708 31.0054 30.9946 24.2925 31 16.0108C31 16.0054 31 16 31 15.9892C31 7.71295 24.2871 1 16.0108 1ZM24.0058 15.9892C24.0058 20.4086 20.4248 23.9895 16.0108 23.9949C11.5914 24.0004 7.99964 20.4194 7.99423 16C7.98882 11.5806 11.5698 7.98882 15.9892 7.98341C20.4086 7.978 24.0004 11.559 24.0058 15.9784V15.9892Z" fill="#005BFF"/>
</svg>
